<svg version="1.1" id="Layer_1" xmlns="http://www.w3.org/2000/svg" xmlns:xlink="http://www.w3.org/1999/xlink" x="0px" y="0px"
	 width="100%" viewBox="0 0 1920 1914" enable-background="new 0 0 1920 1914" xml:space="preserve">
<path fill="#FFFFFF" opacity="1.000000" stroke="none" 
	d="
M1921.000000,713.000000 
	C1921.000000,1114.000000 1921.000000,1514.500000 1921.000000,1915.000000 
	C1281.000000,1915.000000 641.000000,1915.000000 1.000000,1915.000000 
	C1.000000,1277.000000 1.000000,639.000000 1.000000,1.000000 
	C641.000000,1.000000 1281.000000,1.000000 1921.000000,1.000000 
	C1921.000000,238.166672 1921.000000,475.333344 1921.000000,713.000000 
M102.293335,771.499817 
	C102.293289,979.660339 102.265350,1187.820801 102.384972,1395.981323 
	C102.390312,1405.274414 102.965378,1414.703369 104.581734,1423.837891 
	C116.600494,1491.758667 174.367676,1540.004028 243.300232,1540.010132 
	C403.796600,1540.024414 564.292969,1540.015015 724.789368,1540.015015 
	C746.955566,1540.015015 769.122559,1540.110962 791.287048,1539.917236 
	C794.881897,1539.885864 796.674622,1541.052002 797.864746,1544.283325 
	C800.222595,1550.685425 803.002625,1556.932739 805.325806,1563.346436 
	C825.140015,1618.048340 823.401489,1672.016602 800.233582,1725.457397 
	C797.349548,1732.109863 794.071655,1734.353882 786.792847,1734.180664 
	C763.306519,1733.621826 739.798340,1733.872314 716.299561,1733.991943 
	C702.762390,1734.060791 693.550842,1746.009155 696.942078,1758.732300 
	C699.347595,1767.757080 706.839417,1773.089355 717.264221,1773.090088 
	C845.927673,1773.099609 974.591187,1773.097778 1103.254639,1773.097778 
	C1137.420288,1773.097778 1171.585938,1773.090454 1205.751587,1773.093384 
	C1214.280762,1773.093994 1220.485596,1769.243896 1224.013672,1761.547852 
	C1230.036865,1748.409180 1220.612549,1734.084473 1205.777588,1733.998779 
	C1180.612305,1733.853271 1155.445679,1733.959473 1130.279541,1733.989258 
	C1127.743652,1733.992188 1125.698242,1734.067505 1124.300171,1730.997070 
	C1111.596924,1703.100220 1103.682129,1674.069092 1102.948608,1643.283936 
	C1102.144531,1609.532715 1110.023560,1577.602417 1122.961304,1546.658691 
	C1125.041992,1541.682251 1127.363525,1539.851929 1133.020264,1539.857910 
	C1315.515991,1540.049072 1498.011963,1540.022583 1680.507812,1540.013306 
	C1753.019409,1540.009644 1814.846680,1482.101807 1819.014526,1409.631714 
	C1820.199463,1389.029541 1819.680664,1368.320801 1819.683350,1347.660889 
	C1819.718506,1079.333618 1819.709595,811.006287 1819.685303,542.679016 
	C1819.684814,537.351379 1819.504272,532.015198 1819.175049,526.697388 
	C1814.627075,453.218933 1753.301636,395.624420 1679.709229,395.652100 
	C1636.043579,395.668518 1592.377808,395.656006 1548.712158,395.656494 
	C1546.453369,395.656494 1544.194702,395.656494 1541.648438,395.656494 
	C1541.648438,393.937988 1541.648926,392.969452 1541.648315,392.000885 
	C1541.619141,336.835724 1541.657349,281.670410 1541.539673,226.505432 
	C1541.442505,180.975754 1506.876953,144.937073 1463.078735,144.930130 
	C1128.419678,144.877075 793.760498,144.880844 459.101440,145.035278 
	C451.876862,145.038620 444.388245,146.170944 437.473724,148.265244 
	C402.575592,158.835358 380.482849,189.123337 380.451141,225.778183 
	C380.405396,278.610291 380.434906,331.442444 380.432312,384.274597 
	C380.432129,387.894562 380.432312,391.514557 380.432312,395.656525 
	C377.590851,395.656525 375.303009,395.656525 373.015167,395.656525 
	C329.682800,395.656525 286.346771,395.300537 243.019073,395.750244 
	C193.307114,396.266235 154.156693,417.450500 125.953705,458.313110 
	C109.365128,482.347961 102.288429,509.441498 102.291016,538.505005 
	C102.297890,615.836609 102.293343,693.168152 102.293335,771.499817 
z"/>
<path fill="#050505" opacity="1.000000" stroke="none" 
	d="
M102.293335,770.999756 
	C102.293343,693.168152 102.297890,615.836609 102.291016,538.505005 
	C102.288429,509.441498 109.365128,482.347961 125.953705,458.313110 
	C154.156693,417.450500 193.307114,396.266235 243.019073,395.750244 
	C286.346771,395.300537 329.682800,395.656525 373.015167,395.656525 
	C375.303009,395.656525 377.590851,395.656525 380.432312,395.656525 
	C380.432312,391.514557 380.432129,387.894562 380.432312,384.274597 
	C380.434906,331.442444 380.405396,278.610291 380.451141,225.778183 
	C380.482849,189.123337 402.575592,158.835358 437.473724,148.265244 
	C444.388245,146.170944 451.876862,145.038620 459.101440,145.035278 
	C793.760498,144.880844 1128.419678,144.877075 1463.078735,144.930130 
	C1506.876953,144.937073 1541.442505,180.975754 1541.539673,226.505432 
	C1541.657349,281.670410 1541.619141,336.835724 1541.648315,392.000885 
	C1541.648926,392.969452 1541.648438,393.937988 1541.648438,395.656494 
	C1544.194702,395.656494 1546.453369,395.656494 1548.712158,395.656494 
	C1592.377808,395.656006 1636.043579,395.668518 1679.709229,395.652100 
	C1753.301636,395.624420 1814.627075,453.218933 1819.175049,526.697388 
	C1819.504272,532.015198 1819.684814,537.351379 1819.685303,542.679016 
	C1819.709595,811.006287 1819.718506,1079.333618 1819.683350,1347.660889 
	C1819.680664,1368.320801 1820.199463,1389.029541 1819.014526,1409.631714 
	C1814.846680,1482.101807 1753.019409,1540.009644 1680.507812,1540.013306 
	C1498.011963,1540.022583 1315.515991,1540.049072 1133.020264,1539.857910 
	C1127.363525,1539.851929 1125.041992,1541.682251 1122.961304,1546.658691 
	C1110.023560,1577.602417 1102.144531,1609.532715 1102.948608,1643.283936 
	C1103.682129,1674.069092 1111.596924,1703.100220 1124.300171,1730.997070 
	C1125.698242,1734.067505 1127.743652,1733.992188 1130.279541,1733.989258 
	C1155.445679,1733.959473 1180.612305,1733.853271 1205.777588,1733.998779 
	C1220.612549,1734.084473 1230.036865,1748.409180 1224.013672,1761.547852 
	C1220.485596,1769.243896 1214.280762,1773.093994 1205.751587,1773.093384 
	C1171.585938,1773.090454 1137.420288,1773.097778 1103.254639,1773.097778 
	C974.591187,1773.097778 845.927673,1773.099609 717.264221,1773.090088 
	C706.839417,1773.089355 699.347595,1767.757080 696.942078,1758.732300 
	C693.550842,1746.009155 702.762390,1734.060791 716.299561,1733.991943 
	C739.798340,1733.872314 763.306519,1733.621826 786.792847,1734.180664 
	C794.071655,1734.353882 797.349548,1732.109863 800.233582,1725.457397 
	C823.401489,1672.016602 825.140015,1618.048340 805.325806,1563.346436 
	C803.002625,1556.932739 800.222595,1550.685425 797.864746,1544.283325 
	C796.674622,1541.052002 794.881897,1539.885864 791.287048,1539.917236 
	C769.122559,1540.110962 746.955566,1540.015015 724.789368,1540.015015 
	C564.292969,1540.015015 403.796600,1540.024414 243.300232,1540.010132 
	C174.367676,1540.004028 116.600494,1491.758667 104.581734,1423.837891 
	C102.965378,1414.703369 102.390312,1405.274414 102.384972,1395.981323 
	C102.265350,1187.820801 102.293289,979.660339 102.293335,770.999756 
M868.499939,1338.176270 
	C1172.413452,1338.176270 1476.327026,1338.176270 1780.426025,1338.176270 
	C1780.426025,1335.430786 1780.426025,1333.434570 1780.426025,1331.438232 
	C1780.426514,1066.441162 1780.435913,801.444214 1780.420044,536.447205 
	C1780.416748,479.990204 1735.749634,435.024719 1679.372192,434.847321 
	C1635.039795,434.707855 1590.706665,434.819702 1546.373779,434.819916 
	C1544.811279,434.819916 1543.248657,434.819916 1541.560425,434.819916 
	C1541.560425,438.285767 1541.560547,440.950867 1541.560547,443.615936 
	C1541.560547,508.779388 1541.559937,573.942810 1541.560547,639.106262 
	C1541.562256,815.437622 1541.574707,991.768982 1541.517578,1168.100342 
	C1541.515869,1173.577393 1541.319946,1179.151367 1540.325806,1184.515503 
	C1532.862549,1224.786499 1501.060669,1251.161865 1460.045776,1251.170288 
	C1303.380859,1251.202393 1146.715942,1251.185669 990.051025,1251.185547 
	C813.886353,1251.185547 637.721680,1251.212891 461.557037,1251.163330 
	C415.688477,1251.150513 380.480713,1216.189575 380.460571,1170.715332 
	C380.380402,989.885925 380.339447,809.056519 380.316406,628.227112 
	C380.308472,565.895081 380.395233,503.563049 380.438507,441.231018 
	C380.439880,439.264862 380.438690,437.298737 380.438690,435.081543 
	C378.821350,434.981232 377.531372,434.831604 376.241302,434.831207 
	C331.908478,434.818146 287.574890,434.688202 243.243484,434.939514 
	C235.311859,434.984467 227.200928,435.819092 219.493317,437.643372 
	C173.055740,448.634399 141.604080,488.995514 141.595963,537.440430 
	C141.551590,802.437439 141.574585,1067.434448 141.574448,1332.431519 
	C141.574448,1334.205933 141.574448,1335.980347 141.574448,1338.176270 
	C383.915253,1338.176270 625.707581,1338.176270 868.499939,1338.176270 
M1406.500000,648.151367 
	C1235.067261,648.151367 1063.634521,648.151367 892.266418,648.151367 
	C882.182251,742.346069 803.685303,813.014099 713.010986,816.486328 
	C671.561829,818.073608 633.354736,807.606628 599.273865,784.020691 
	C551.872925,751.216675 525.145264,705.513184 517.697998,648.454712 
	C484.934845,648.454712 452.522430,648.454712 419.719757,648.454712 
	C419.719757,652.239624 419.719696,655.712158 419.719757,659.184692 
	C419.723755,829.169922 419.709381,999.155151 419.751312,1169.140381 
	C419.757751,1195.161011 436.713898,1212.047485 462.559448,1212.047852 
	C794.863953,1212.052002 1127.168457,1212.052002 1459.472900,1212.047607 
	C1485.216797,1212.047363 1502.255371,1194.942993 1502.259033,1169.072266 
	C1502.282837,997.087341 1502.294800,825.102478 1502.295898,653.117554 
	C1502.295898,651.541504 1502.096924,649.965454 1501.974731,648.151367 
	C1470.120972,648.151367 1438.810425,648.151367 1406.500000,648.151367 
M961.500305,1377.381836 
	C688.391357,1377.381836 415.282471,1377.381836 141.566040,1377.381836 
	C141.566040,1384.617676 141.561554,1391.403442 141.566772,1398.189209 
	C141.611588,1456.473877 186.206146,1500.964966 244.579926,1500.963989 
	C536.387085,1500.959595 828.194275,1500.951904 1120.001465,1500.951050 
	C1306.486816,1500.950562 1492.972168,1500.988647 1679.457520,1500.947144 
	C1735.483765,1500.934692 1789.642700,1454.340576 1779.767334,1377.381958 
	C1507.385132,1377.381958 1234.942749,1377.381958 961.500305,1377.381836 
M1031.500000,608.993286 
	C1188.273560,608.993286 1345.047119,608.993286 1501.999512,608.993286 
	C1501.999512,542.639771 1501.999512,476.745056 1501.999512,410.742493 
	C1141.196777,410.742493 780.675964,410.742493 420.038910,410.742493 
	C420.038910,476.913055 420.038910,542.792480 420.038910,608.751099 
	C452.791931,608.751099 485.224487,608.751099 517.628357,608.751099 
	C528.417114,512.879822 607.431458,445.489410 693.900574,440.948700 
	C736.775330,438.697266 776.252319,449.257385 811.449829,473.853607 
	C858.388428,506.654572 884.831909,552.145508 892.207031,608.993286 
	C938.542664,608.993286 984.521301,608.993286 1031.500000,608.993286 
M1352.499878,371.220428 
	C1402.276489,371.220428 1452.052979,371.220428 1502.283447,371.220428 
	C1502.283447,369.296875 1502.283447,367.845459 1502.283447,366.394043 
	C1502.282593,319.733765 1502.306396,273.073456 1502.270874,226.413239 
	C1502.251709,201.315659 1484.940796,183.953247 1459.844849,183.951843 
	C1127.223755,183.933167 794.602661,183.931549 461.981537,183.954697 
	C436.954620,183.956451 419.730957,201.393784 419.723206,226.518173 
	C419.708893,273.011810 419.717896,319.505432 419.717163,365.999054 
	C419.717133,367.606964 419.717133,369.214874 419.717133,371.220428 
	C730.665405,371.220428 1041.082520,371.220428 1352.499878,371.220428 
M843.457825,1721.991333 
	C842.100769,1725.844482 840.743713,1729.697754 839.325439,1733.724609 
	C920.686707,1733.724609 1001.396667,1733.724609 1082.925049,1733.724609 
	C1056.858398,1668.981201 1058.044678,1604.561401 1083.367310,1540.326416 
	C1001.457031,1540.326416 920.286804,1540.326416 838.547546,1540.326416 
	C862.162476,1600.294922 865.019165,1660.467651 843.457825,1721.991333 
M639.067078,673.570679 
	C622.723450,653.812500 615.239380,631.168701 619.049133,605.739258 
	C624.427673,569.838196 644.734741,545.141602 679.306396,534.359070 
	C713.494690,523.696045 744.366089,532.036682 768.601196,558.455627 
	C793.414307,585.504639 798.388123,617.300293 784.439331,651.264404 
	C780.478821,660.908020 773.738220,669.409790 768.092712,678.732239 
	C788.511902,688.354858 806.428101,702.633972 821.119751,720.967712 
	C865.340515,668.189270 868.946045,577.957031 805.993042,519.484253 
	C744.065002,461.963531 646.709045,467.745789 592.436218,531.203369 
	C537.625549,595.289795 551.967773,679.641785 588.448730,719.992615 
	C596.764465,712.134766 604.598999,703.650330 613.548950,696.577271 
	C622.563049,689.453613 632.685486,683.732361 642.388123,677.353333 
	C641.527222,676.368469 640.545471,675.245300 639.067078,673.570679 
M662.325195,771.229553 
	C709.306335,784.503174 752.564636,776.636108 792.669495,749.023315 
	C773.071655,719.320007 734.513245,701.192078 696.467102,704.277832 
	C663.570801,706.945984 637.260559,722.003906 617.111755,748.678650 
	C631.025879,758.922546 645.673340,766.182129 662.325195,771.229553 
M752.313232,621.761353 
	C754.933960,595.130371 735.949524,572.426025 708.659851,569.554199 
	C683.424194,566.898499 660.532349,586.262146 657.462891,612.860352 
	C654.602356,637.648193 673.825745,661.290466 699.321594,664.341248 
	C725.439087,667.466431 748.844666,649.006958 752.313232,621.761353 
z"/>
<path fill="#FFFFFF" opacity="1.000000" stroke="none" 
	d="
M867.999878,1338.176270 
	C625.707581,1338.176270 383.915253,1338.176270 141.574448,1338.176270 
	C141.574448,1335.980347 141.574448,1334.205933 141.574448,1332.431519 
	C141.574585,1067.434448 141.551590,802.437439 141.595963,537.440430 
	C141.604080,488.995514 173.055740,448.634399 219.493317,437.643372 
	C227.200928,435.819092 235.311859,434.984467 243.243484,434.939514 
	C287.574890,434.688202 331.908478,434.818146 376.241302,434.831207 
	C377.531372,434.831604 378.821350,434.981232 380.438690,435.081543 
	C380.438690,437.298737 380.439880,439.264862 380.438507,441.231018 
	C380.395233,503.563049 380.308472,565.895081 380.316406,628.227112 
	C380.339447,809.056519 380.380402,989.885925 380.460571,1170.715332 
	C380.480713,1216.189575 415.688477,1251.150513 461.557037,1251.163330 
	C637.721680,1251.212891 813.886353,1251.185547 990.051025,1251.185547 
	C1146.715942,1251.185669 1303.380859,1251.202393 1460.045776,1251.170288 
	C1501.060669,1251.161865 1532.862549,1224.786499 1540.325806,1184.515503 
	C1541.319946,1179.151367 1541.515869,1173.577393 1541.517578,1168.100342 
	C1541.574707,991.768982 1541.562256,815.437622 1541.560547,639.106262 
	C1541.559937,573.942810 1541.560547,508.779388 1541.560547,443.615936 
	C1541.560547,440.950867 1541.560425,438.285767 1541.560425,434.819916 
	C1543.248657,434.819916 1544.811279,434.819916 1546.373779,434.819916 
	C1590.706665,434.819702 1635.039795,434.707855 1679.372192,434.847321 
	C1735.749634,435.024719 1780.416748,479.990204 1780.420044,536.447205 
	C1780.435913,801.444214 1780.426514,1066.441162 1780.426025,1331.438232 
	C1780.426025,1333.434570 1780.426025,1335.430786 1780.426025,1338.176270 
	C1476.327026,1338.176270 1172.413452,1338.176270 867.999878,1338.176270 
z"/>
<path fill="#FEFEFE" opacity="1.000000" stroke="none" 
	d="
M1407.000000,648.151367 
	C1438.810425,648.151367 1470.120972,648.151367 1501.974731,648.151367 
	C1502.096924,649.965454 1502.295898,651.541504 1502.295898,653.117554 
	C1502.294800,825.102478 1502.282837,997.087341 1502.259033,1169.072266 
	C1502.255371,1194.942993 1485.216797,1212.047363 1459.472900,1212.047607 
	C1127.168457,1212.052002 794.863953,1212.052002 462.559448,1212.047852 
	C436.713898,1212.047485 419.757751,1195.161011 419.751312,1169.140381 
	C419.709381,999.155151 419.723755,829.169922 419.719757,659.184692 
	C419.719696,655.712158 419.719757,652.239624 419.719757,648.454712 
	C452.522430,648.454712 484.934845,648.454712 517.697998,648.454712 
	C525.145264,705.513184 551.872925,751.216675 599.273865,784.020691 
	C633.354736,807.606628 671.561829,818.073608 713.010986,816.486328 
	C803.685303,813.014099 882.182251,742.346069 892.266418,648.151367 
	C1063.634521,648.151367 1235.067261,648.151367 1407.000000,648.151367 
M1329.500000,873.171265 
	C1309.837891,873.171265 1290.175659,873.171204 1270.513550,873.171204 
	C1186.032959,873.171082 1101.552246,873.098755 1017.071899,873.199158 
	C969.650635,873.255554 932.138184,908.706116 931.218750,955.264832 
	C930.462219,993.573730 930.439026,1031.922363 931.226746,1070.230103 
	C932.157104,1115.475586 969.432190,1151.773560 1014.464111,1151.845825 
	C1129.770508,1152.030640 1245.077881,1152.044189 1360.384277,1151.825806 
	C1405.922485,1151.739502 1443.347534,1114.117920 1443.637207,1068.584351 
	C1443.876709,1030.928345 1443.815674,993.268250 1443.592651,955.611755 
	C1443.362915,916.828125 1414.028442,881.382751 1375.821411,875.212585 
	C1360.991211,872.817627 1345.623047,873.752991 1329.500000,873.171265 
M1205.500122,750.225708 
	C1138.691772,750.225708 1071.883545,750.225464 1005.075195,750.226562 
	C1002.576355,750.226624 1000.067200,750.095520 997.580383,750.271851 
	C986.798218,751.036438 978.851074,759.453247 978.892273,769.953491 
	C978.933716,780.508972 986.867310,788.737244 997.730469,789.420776 
	C999.888489,789.556580 1002.060730,789.480103 1004.226379,789.480103 
	C1127.013916,789.482300 1249.801392,789.484253 1372.588867,789.467041 
	C1374.914795,789.466736 1377.273438,789.444397 1379.560913,789.080566 
	C1390.318237,787.369507 1397.481079,777.017639 1395.418091,766.325745 
	C1393.476685,756.263611 1385.702515,750.239929 1374.437622,750.235596 
	C1318.458496,750.214172 1262.479370,750.225769 1205.500122,750.225708 
M802.499817,1137.657104 
	C812.661316,1137.663208 822.824890,1137.787231 832.983154,1137.609985 
	C836.432312,1137.549927 840.054749,1137.268066 843.274414,1136.153076 
	C852.144409,1133.081909 857.330872,1123.723755 855.687805,1114.670898 
	C853.834290,1104.458374 845.835754,1098.338257 834.332764,1098.339478 
	C723.222290,1098.352051 612.111755,1098.365479 501.001282,1098.380615 
	C499.502411,1098.380737 497.994873,1098.305786 496.505951,1098.434448 
	C481.192780,1099.756836 473.105835,1116.773682 481.914307,1129.277466 
	C486.449066,1135.714600 493.020233,1137.700684 500.651489,1137.696167 
	C600.934204,1137.637329 701.216980,1137.657104 802.499817,1137.657104 
M827.479980,926.824707 
	C830.644897,926.826599 833.816223,926.959961 836.973511,926.805542 
	C846.227478,926.353088 853.417786,920.267822 855.433167,911.328674 
	C857.428772,902.477356 853.497314,893.665894 844.926697,889.820374 
	C841.297852,888.192261 836.886719,887.721924 832.830261,887.718018 
	C722.061890,887.610474 611.293457,887.630737 500.525024,887.638062 
	C498.862457,887.638184 497.186340,887.628052 495.539642,887.820374 
	C487.602600,888.747131 481.154449,894.146423 479.119446,901.847961 
	C477.013031,909.819824 479.135162,916.648926 485.327850,922.142639 
	C489.870575,926.172607 495.364258,926.856384 501.176819,926.854187 
	C609.613281,926.814026 718.049744,926.824707 827.479980,926.824707 
M724.500000,992.963501 
	C652.668335,992.963562 580.836609,992.962830 509.004944,992.965576 
	C505.005280,992.965759 500.998657,992.850037 497.007385,993.041260 
	C488.288849,993.459045 480.922211,999.544861 478.954590,1007.754456 
	C475.817596,1020.843140 485.155029,1032.072144 499.261414,1032.073730 
	C609.258972,1032.086304 719.256470,1032.081055 829.254028,1032.080933 
	C832.087158,1032.080933 834.927307,1032.205566 837.752136,1032.051147 
	C849.303345,1031.419556 857.823242,1020.343140 855.568176,1008.984314 
	C853.567871,998.908264 845.902222,992.993225 834.497559,992.979614 
	C798.165100,992.936401 761.832520,992.963501 724.500000,992.963501 
z"/>
<path fill="#FEFEFE" opacity="1.000000" stroke="none" 
	d="
M962.000366,1377.381836 
	C1234.942749,1377.381958 1507.385132,1377.381958 1779.767334,1377.381958 
	C1789.642700,1454.340576 1735.483765,1500.934692 1679.457520,1500.947144 
	C1492.972168,1500.988647 1306.486816,1500.950562 1120.001465,1500.951050 
	C828.194275,1500.951904 536.387085,1500.959595 244.579926,1500.963989 
	C186.206146,1500.964966 141.611588,1456.473877 141.566772,1398.189209 
	C141.561554,1391.403442 141.566040,1384.617676 141.566040,1377.381836 
	C415.282471,1377.381836 688.391357,1377.381836 962.000366,1377.381836 
z"/>
<path fill="#FEFEFE" opacity="1.000000" stroke="none" 
	d="
M1031.000000,608.993286 
	C984.521301,608.993286 938.542664,608.993286 892.207031,608.993286 
	C884.831909,552.145508 858.388428,506.654572 811.449829,473.853607 
	C776.252319,449.257385 736.775330,438.697266 693.900574,440.948700 
	C607.431458,445.489410 528.417114,512.879822 517.628357,608.751099 
	C485.224487,608.751099 452.791931,608.751099 420.038910,608.751099 
	C420.038910,542.792480 420.038910,476.913055 420.038910,410.742493 
	C780.675964,410.742493 1141.196777,410.742493 1501.999512,410.742493 
	C1501.999512,476.745056 1501.999512,542.639771 1501.999512,608.993286 
	C1345.047119,608.993286 1188.273560,608.993286 1031.000000,608.993286 
z"/>
<path fill="#FEFEFE" opacity="1.000000" stroke="none" 
	d="
M1351.999756,371.220428 
	C1041.082520,371.220428 730.665405,371.220428 419.717133,371.220428 
	C419.717133,369.214874 419.717133,367.606964 419.717163,365.999054 
	C419.717896,319.505432 419.708893,273.011810 419.723206,226.518173 
	C419.730957,201.393784 436.954620,183.956451 461.981537,183.954697 
	C794.602661,183.931549 1127.223755,183.933167 1459.844849,183.951843 
	C1484.940796,183.953247 1502.251709,201.315659 1502.270874,226.413239 
	C1502.306396,273.073456 1502.282593,319.733765 1502.283447,366.394043 
	C1502.283447,367.845459 1502.283447,369.296875 1502.283447,371.220428 
	C1452.052979,371.220428 1402.276489,371.220428 1351.999756,371.220428 
M995.852905,263.304474 
	C989.524109,269.629059 987.815247,277.120026 991.266541,285.280334 
	C994.625366,293.222382 1000.966858,297.179169 1009.747131,297.176727 
	C1090.876099,297.154114 1172.005127,297.192383 1253.133911,297.077423 
	C1256.342651,297.072876 1259.828369,296.276947 1262.703979,294.867859 
	C1270.768677,290.916229 1274.698853,281.616943 1272.521606,272.934692 
	C1270.278076,263.987976 1262.843506,258.054901 1253.092651,258.048004 
	C1171.797119,257.990326 1090.501343,257.949036 1009.206665,258.228638 
	C1004.924377,258.243347 1000.652100,261.205139 995.852905,263.304474 
M576.748230,226.714859 
	C565.017273,219.512054 552.374329,216.391434 538.582092,217.716644 
	C507.641418,220.689514 483.940887,246.982391 484.147430,278.299652 
	C484.351379,309.223419 508.987305,335.534058 539.867126,337.807129 
	C567.366089,339.831329 592.349121,323.411896 601.576111,297.250610 
	C610.691406,271.406006 601.032593,243.433060 576.748230,226.714859 
M808.317078,287.979706 
	C816.150818,322.652283 845.623840,342.970734 879.246948,336.878143 
	C911.646729,331.007202 933.157471,299.095978 926.987793,266.054443 
	C920.974609,233.850967 888.563354,212.050674 856.515930,218.361969 
	C826.369324,224.298904 803.282410,252.560715 808.317078,287.979706 
M765.604614,287.858948 
	C768.511841,266.813080 763.061829,248.397675 747.329956,233.862000 
	C729.010559,216.935562 707.457764,212.645538 684.332031,221.617371 
	C661.598755,230.436966 648.437317,247.920166 646.220459,272.244263 
	C643.202332,305.360962 665.925842,332.905060 698.895752,337.485016 
	C729.865723,341.787079 758.937683,320.467560 765.604614,287.858948 
M1343.156982,260.425598 
	C1334.567505,266.101562 1331.111816,274.306915 1333.659424,282.976135 
	C1336.344482,292.113068 1343.588745,297.152039 1354.061279,297.162781 
	C1358.147949,297.166962 1362.234619,297.163483 1366.670532,297.163483 
	C1366.670532,302.366333 1366.268433,306.882721 1366.794312,311.288330 
	C1367.235229,314.980621 1368.082520,318.943939 1369.939575,322.083557 
	C1374.296265,329.448944 1383.140869,332.545410 1391.166382,330.320953 
	C1399.803833,327.926941 1405.433105,320.871704 1405.792358,311.679688 
	C1405.977417,306.943878 1405.824829,302.194855 1405.824829,297.172424 
	C1410.724731,297.172424 1414.864380,297.188477 1419.003784,297.169342 
	C1430.739258,297.115082 1439.460083,288.952667 1439.562622,277.943481 
	C1439.667847,266.644989 1431.057373,258.236298 1419.090820,258.020172 
	C1414.808838,257.942841 1410.524048,258.007751 1405.859863,258.007751 
	C1405.859863,253.404770 1405.876831,249.281769 1405.856689,245.158936 
	C1405.798584,233.273071 1397.358154,224.252579 1386.318604,224.260040 
	C1374.994019,224.267685 1366.811401,232.863861 1366.687866,244.923584 
	C1366.644165,249.189804 1366.680908,253.456863 1366.680908,256.958374 
	C1358.520874,258.068329 1351.179321,259.066925 1343.156982,260.425598 
z"/>
<path fill="#FEFEFE" opacity="1.000000" stroke="none" 
	d="
M843.604797,1721.625244 
	C865.019165,1660.467651 862.162476,1600.294922 838.547546,1540.326416 
	C920.286804,1540.326416 1001.457031,1540.326416 1083.367310,1540.326416 
	C1058.044678,1604.561401 1056.858398,1668.981201 1082.925049,1733.724609 
	C1001.396667,1733.724609 920.686707,1733.724609 839.325439,1733.724609 
	C840.743713,1729.697754 842.100769,1725.844482 843.604797,1721.625244 
z"/>
<path fill="#FDFDFD" opacity="1.000000" stroke="none" 
	d="
M639.315430,673.846436 
	C640.545471,675.245300 641.527222,676.368469 642.388123,677.353333 
	C632.685486,683.732361 622.563049,689.453613 613.548950,696.577271 
	C604.598999,703.650330 596.764465,712.134766 588.448730,719.992615 
	C551.967773,679.641785 537.625549,595.289795 592.436218,531.203369 
	C646.709045,467.745789 744.065002,461.963531 805.993042,519.484253 
	C868.946045,577.957031 865.340515,668.189270 821.119751,720.967712 
	C806.428101,702.633972 788.511902,688.354858 768.092712,678.732239 
	C773.738220,669.409790 780.478821,660.908020 784.439331,651.264404 
	C798.388123,617.300293 793.414307,585.504639 768.601196,558.455627 
	C744.366089,532.036682 713.494690,523.696045 679.306396,534.359070 
	C644.734741,545.141602 624.427673,569.838196 619.049133,605.739258 
	C615.239380,631.168701 622.723450,653.812500 639.315430,673.846436 
z"/>
<path fill="#FCFCFC" opacity="1.000000" stroke="none" 
	d="
M661.935242,771.130615 
	C645.673340,766.182129 631.025879,758.922546 617.111755,748.678650 
	C637.260559,722.003906 663.570801,706.945984 696.467102,704.277832 
	C734.513245,701.192078 773.071655,719.320007 792.669495,749.023315 
	C752.564636,776.636108 709.306335,784.503174 661.935242,771.130615 
z"/>
<path fill="#FCFCFC" opacity="1.000000" stroke="none" 
	d="
M752.265747,622.192139 
	C748.844666,649.006958 725.439087,667.466431 699.321594,664.341248 
	C673.825745,661.290466 654.602356,637.648193 657.462891,612.860352 
	C660.532349,586.262146 683.424194,566.898499 708.659851,569.554199 
	C735.949524,572.426025 754.933960,595.130371 752.265747,622.192139 
z"/>
<path fill="#040404" opacity="1.000000" stroke="none" 
	d="
M1330.000000,873.171265 
	C1345.623047,873.752991 1360.991211,872.817627 1375.821411,875.212585 
	C1414.028442,881.382751 1443.362915,916.828125 1443.592651,955.611755 
	C1443.815674,993.268250 1443.876709,1030.928345 1443.637207,1068.584351 
	C1443.347534,1114.117920 1405.922485,1151.739502 1360.384277,1151.825806 
	C1245.077881,1152.044189 1129.770508,1152.030640 1014.464111,1151.845825 
	C969.432190,1151.773560 932.157104,1115.475586 931.226746,1070.230103 
	C930.439026,1031.922363 930.462219,993.573730 931.218750,955.264832 
	C932.138184,908.706116 969.650635,873.255554 1017.071899,873.199158 
	C1101.552246,873.098755 1186.032959,873.171082 1270.513550,873.171204 
	C1290.175659,873.171204 1309.837891,873.171265 1330.000000,873.171265 
M1316.499878,1112.712280 
	C1330.494995,1112.712158 1344.490356,1112.743286 1358.485352,1112.704956 
	C1384.547607,1112.633667 1404.329590,1092.887695 1404.372314,1066.821411 
	C1404.430420,1031.334106 1404.427002,995.846924 1404.407593,960.359680 
	C1404.391968,931.598633 1385.237671,912.413818 1356.504150,912.407043 
	C1244.211060,912.380493 1131.917969,912.379272 1019.624878,912.379272 
	C1017.461060,912.379272 1015.290894,912.426514 1013.134338,912.590454 
	C987.881836,914.510193 970.185059,933.497498 970.144897,958.852539 
	C970.087830,994.839600 970.077759,1030.826904 970.143799,1066.813843 
	C970.191467,1092.815552 990.191589,1112.722534 1016.106873,1112.722290 
	C1115.904541,1112.721680 1215.702148,1112.716064 1316.499878,1112.712280 
z"/>
<path fill="#040404" opacity="1.000000" stroke="none" 
	d="
M1206.000244,750.225708 
	C1262.479370,750.225769 1318.458496,750.214172 1374.437622,750.235596 
	C1385.702515,750.239929 1393.476685,756.263611 1395.418091,766.325745 
	C1397.481079,777.017639 1390.318237,787.369507 1379.560913,789.080566 
	C1377.273438,789.444397 1374.914795,789.466736 1372.588867,789.467041 
	C1249.801392,789.484253 1127.013916,789.482300 1004.226379,789.480103 
	C1002.060730,789.480103 999.888489,789.556580 997.730469,789.420776 
	C986.867310,788.737244 978.933716,780.508972 978.892273,769.953491 
	C978.851074,759.453247 986.798218,751.036438 997.580383,750.271851 
	C1000.067200,750.095520 1002.576355,750.226624 1005.075195,750.226562 
	C1071.883545,750.225464 1138.691772,750.225708 1206.000244,750.225708 
z"/>
<path fill="#070707" opacity="1.000000" stroke="none" 
	d="
M801.999756,1137.657104 
	C701.216980,1137.657104 600.934204,1137.637329 500.651489,1137.696167 
	C493.020233,1137.700684 486.449066,1135.714600 481.914307,1129.277466 
	C473.105835,1116.773682 481.192780,1099.756836 496.505951,1098.434448 
	C497.994873,1098.305786 499.502411,1098.380737 501.001282,1098.380615 
	C612.111755,1098.365479 723.222290,1098.352051 834.332764,1098.339478 
	C845.835754,1098.338257 853.834290,1104.458374 855.687805,1114.670898 
	C857.330872,1123.723755 852.144409,1133.081909 843.274414,1136.153076 
	C840.054749,1137.268066 836.432312,1137.549927 832.983154,1137.609985 
	C822.824890,1137.787231 812.661316,1137.663208 801.999756,1137.657104 
z"/>
<path fill="#040404" opacity="1.000000" stroke="none" 
	d="
M826.983093,926.824707 
	C718.049744,926.824707 609.613281,926.814026 501.176819,926.854187 
	C495.364258,926.856384 489.870575,926.172607 485.327850,922.142639 
	C479.135162,916.648926 477.013031,909.819824 479.119446,901.847961 
	C481.154449,894.146423 487.602600,888.747131 495.539642,887.820374 
	C497.186340,887.628052 498.862457,887.638184 500.525024,887.638062 
	C611.293457,887.630737 722.061890,887.610474 832.830261,887.718018 
	C836.886719,887.721924 841.297852,888.192261 844.926697,889.820374 
	C853.497314,893.665894 857.428772,902.477356 855.433167,911.328674 
	C853.417786,920.267822 846.227478,926.353088 836.973511,926.805542 
	C833.816223,926.959961 830.644897,926.826599 826.983093,926.824707 
z"/>
<path fill="#030303" opacity="1.000000" stroke="none" 
	d="
M725.000000,992.963501 
	C761.832520,992.963501 798.165100,992.936401 834.497559,992.979614 
	C845.902222,992.993225 853.567871,998.908264 855.568176,1008.984314 
	C857.823242,1020.343140 849.303345,1031.419556 837.752136,1032.051147 
	C834.927307,1032.205566 832.087158,1032.080933 829.254028,1032.080933 
	C719.256470,1032.081055 609.258972,1032.086304 499.261414,1032.073730 
	C485.155029,1032.072144 475.817596,1020.843140 478.954590,1007.754456 
	C480.922211,999.544861 488.288849,993.459045 497.007385,993.041260 
	C500.998657,992.850037 505.005280,992.965759 509.004944,992.965576 
	C580.836609,992.962830 652.668335,992.963562 725.000000,992.963501 
z"/>
<path fill="#040404" opacity="1.000000" stroke="none" 
	d="
M996.114014,263.049713 
	C1000.652100,261.205139 1004.924377,258.243347 1009.206665,258.228638 
	C1090.501343,257.949036 1171.797119,257.990326 1253.092651,258.048004 
	C1262.843506,258.054901 1270.278076,263.987976 1272.521606,272.934692 
	C1274.698853,281.616943 1270.768677,290.916229 1262.703979,294.867859 
	C1259.828369,296.276947 1256.342651,297.072876 1253.133911,297.077423 
	C1172.005127,297.192383 1090.876099,297.154114 1009.747131,297.176727 
	C1000.966858,297.179169 994.625366,293.222382 991.266541,285.280334 
	C987.815247,277.120026 989.524109,269.629059 996.114014,263.049713 
z"/>
<path fill="#050505" opacity="1.000000" stroke="none" 
	d="
M577.052612,226.912262 
	C601.032593,243.433060 610.691406,271.406006 601.576111,297.250610 
	C592.349121,323.411896 567.366089,339.831329 539.867126,337.807129 
	C508.987305,335.534058 484.351379,309.223419 484.147430,278.299652 
	C483.940887,246.982391 507.641418,220.689514 538.582092,217.716644 
	C552.374329,216.391434 565.017273,219.512054 577.052612,226.912262 
M562.334900,266.331299 
	C555.689087,257.433319 546.377075,254.350540 537.029480,257.953888 
	C528.193237,261.360107 522.500122,270.435883 523.485718,279.545105 
	C524.424927,288.226776 530.212952,295.474091 538.257568,297.793945 
	C547.132324,300.353271 554.838745,298.126648 560.689514,291.084351 
	C566.836182,283.685913 567.298096,275.445160 562.334900,266.331299 
z"/>
<path fill="#050505" opacity="1.000000" stroke="none" 
	d="
M808.250671,287.552429 
	C803.282410,252.560715 826.369324,224.298904 856.515930,218.361969 
	C888.563354,212.050674 920.974609,233.850967 926.987793,266.054443 
	C933.157471,299.095978 911.646729,331.007202 879.246948,336.878143 
	C845.623840,342.970734 816.150818,322.652283 808.250671,287.552429 
M886.056335,288.339264 
	C886.737854,286.655396 887.596436,285.019867 888.071106,283.279572 
	C890.462585,274.511993 887.914490,267.060303 881.113342,261.388641 
	C874.234192,255.651871 866.291504,254.883011 858.292969,258.919861 
	C850.477234,262.864410 846.616760,269.557648 846.756958,278.312500 
	C846.903503,287.467896 852.814819,295.002258 861.767395,297.875977 
	C870.503540,300.680206 878.832520,297.577515 886.056335,288.339264 
z"/>
<path fill="#050505" opacity="1.000000" stroke="none" 
	d="
M765.501709,288.287415 
	C758.937683,320.467560 729.865723,341.787079 698.895752,337.485016 
	C665.925842,332.905060 643.202332,305.360962 646.220459,272.244263 
	C648.437317,247.920166 661.598755,230.436966 684.332031,221.617371 
	C707.457764,212.645538 729.010559,216.935562 747.329956,233.862000 
	C763.061829,248.397675 768.511841,266.813080 765.501709,288.287415 
M701.512146,298.196198 
	C710.839844,299.910767 719.279541,296.439789 724.025146,288.937317 
	C728.437927,281.960938 728.259888,272.505035 723.589417,265.791016 
	C718.508667,258.487335 709.974060,255.175842 701.259827,257.126831 
	C692.388550,259.112976 685.603943,267.157227 685.031616,276.367981 
	C684.419983,286.211914 690.197754,294.195740 701.512146,298.196198 
z"/>
<path fill="#050505" opacity="1.000000" stroke="none" 
	d="
M1343.497314,260.245575 
	C1351.179321,259.066925 1358.520874,258.068329 1366.680908,256.958374 
	C1366.680908,253.456863 1366.644165,249.189804 1366.687866,244.923584 
	C1366.811401,232.863861 1374.994019,224.267685 1386.318604,224.260040 
	C1397.358154,224.252579 1405.798584,233.273071 1405.856689,245.158936 
	C1405.876831,249.281769 1405.859863,253.404770 1405.859863,258.007751 
	C1410.524048,258.007751 1414.808838,257.942841 1419.090820,258.020172 
	C1431.057373,258.236298 1439.667847,266.644989 1439.562622,277.943481 
	C1439.460083,288.952667 1430.739258,297.115082 1419.003784,297.169342 
	C1414.864380,297.188477 1410.724731,297.172424 1405.824829,297.172424 
	C1405.824829,302.194855 1405.977417,306.943878 1405.792358,311.679688 
	C1405.433105,320.871704 1399.803833,327.926941 1391.166382,330.320953 
	C1383.140869,332.545410 1374.296265,329.448944 1369.939575,322.083557 
	C1368.082520,318.943939 1367.235229,314.980621 1366.794312,311.288330 
	C1366.268433,306.882721 1366.670532,302.366333 1366.670532,297.163483 
	C1362.234619,297.163483 1358.147949,297.166962 1354.061279,297.162781 
	C1343.588745,297.152039 1336.344482,292.113068 1333.659424,282.976135 
	C1331.111816,274.306915 1334.567505,266.101562 1343.497314,260.245575 
z"/>
<path fill="#FEFEFE" opacity="1.000000" stroke="none" 
	d="
M1315.999756,1112.712280 
	C1215.702148,1112.716064 1115.904541,1112.721680 1016.106873,1112.722290 
	C990.191589,1112.722534 970.191467,1092.815552 970.143799,1066.813843 
	C970.077759,1030.826904 970.087830,994.839600 970.144897,958.852539 
	C970.185059,933.497498 987.881836,914.510193 1013.134338,912.590454 
	C1015.290894,912.426514 1017.461060,912.379272 1019.624878,912.379272 
	C1131.917969,912.379272 1244.211060,912.380493 1356.504150,912.407043 
	C1385.237671,912.413818 1404.391968,931.598633 1404.407593,960.359680 
	C1404.427002,995.846924 1404.430420,1031.334106 1404.372314,1066.821411 
	C1404.329590,1092.887695 1384.547607,1112.633667 1358.485352,1112.704956 
	C1344.490356,1112.743286 1330.494995,1112.712158 1315.999756,1112.712280 
z"/>
<path fill="#FAFAFA" opacity="1.000000" stroke="none" 
	d="
M562.540771,266.642761 
	C567.298096,275.445160 566.836182,283.685913 560.689514,291.084351 
	C554.838745,298.126648 547.132324,300.353271 538.257568,297.793945 
	C530.212952,295.474091 524.424927,288.226776 523.485718,279.545105 
	C522.500122,270.435883 528.193237,261.360107 537.029480,257.953888 
	C546.377075,254.350540 555.689087,257.433319 562.540771,266.642761 
z"/>
<path fill="#FAFAFA" opacity="1.000000" stroke="none" 
	d="
M885.859741,288.656860 
	C878.832520,297.577515 870.503540,300.680206 861.767395,297.875977 
	C852.814819,295.002258 846.903503,287.467896 846.756958,278.312500 
	C846.616760,269.557648 850.477234,262.864410 858.292969,258.919861 
	C866.291504,254.883011 874.234192,255.651871 881.113342,261.388641 
	C887.914490,267.060303 890.462585,274.511993 888.071106,283.279572 
	C887.596436,285.019867 886.737854,286.655396 885.859741,288.656860 
z"/>
<path fill="#FAFAFA" opacity="1.000000" stroke="none" 
	d="
M701.115723,298.120850 
	C690.197754,294.195740 684.419983,286.211914 685.031616,276.367981 
	C685.603943,267.157227 692.388550,259.112976 701.259827,257.126831 
	C709.974060,255.175842 718.508667,258.487335 723.589417,265.791016 
	C728.259888,272.505035 728.437927,281.960938 724.025146,288.937317 
	C719.279541,296.439789 710.839844,299.910767 701.115723,298.120850 
z"/>
</svg>