<svg version="1.1" id="Layer_1" xmlns="http://www.w3.org/2000/svg" xmlns:xlink="http://www.w3.org/1999/xlink" x="0px" y="0px"
	 width="100%" viewBox="0 0 980 980" enable-background="new 0 0 980 980" xml:space="preserve">
<path fill="none" opacity="1.000000" stroke="#000000" stroke-linecap="round" stroke-linejoin="round" stroke-width="11.000000"
	d="
M365.500000,617.500000 
	C368.666656,618.927734 371.830017,617.405945 375.000549,617.431213 
	C392.832764,617.573792 410.667938,617.623962 428.499390,617.440857 
	C435.956818,617.364380 443.174957,616.815491 450.099884,612.666687 
	C461.954132,605.564575 467.750519,594.898926 467.814209,581.999084 
	C468.191040,505.667603 468.178650,429.332642 467.883301,353.000458 
	C467.802277,332.063507 451.615356,316.767761 431.499329,316.868195 
	C362.667725,317.211914 293.832977,317.125458 225.000244,316.920044 
	C205.511337,316.861877 189.166534,331.560364 189.079926,353.000336 
	C188.846283,410.832733 189.000000,468.666656 189.000000,526.500000 
	C189.000000,545.166687 188.896164,563.834045 189.031128,582.499756 
	C189.150436,599.000000 201.662552,613.794312 216.485733,616.575989 
	C221.336655,617.486328 226.128860,617.546326 231.000107,617.528320 
	C249.833176,617.458618 268.667786,617.609375 287.499146,617.416809 
	C291.769348,617.373108 294.448395,618.837585 296.544037,622.474609 
	C302.922485,633.544678 310.401855,644.091309 315.644806,655.660950 
	C318.556732,662.086609 322.450165,667.118286 327.041534,671.960632 
	C329.560303,674.617004 328.002716,677.666199 328.500000,680.500000 
"/>
<path fill="none" opacity="1.000000" stroke="#000000" stroke-linecap="round" stroke-linejoin="round" stroke-width="11.000000"
	d="
M356.500000,270.000000 
	C293.833344,270.000000 231.166626,269.958130 168.500031,270.022461 
	C146.245117,270.045288 130.825714,285.823303 130.874939,307.500275 
	C131.139511,423.999695 130.893433,540.500305 131.208832,656.999451 
	C131.233215,666.003723 130.545319,674.988342 130.920181,684.003296 
	C131.286865,692.821411 131.139893,701.669312 130.972839,710.499512 
	C130.533157,733.739380 147.034409,753.904907 171.504623,757.972168 
	C172.802109,758.187866 174.166672,758.000000 175.500000,758.000000 
	C254.666672,758.000000 333.833618,757.897644 412.999695,758.112122 
	C424.668549,758.143738 436.329742,757.716492 448.001007,757.949036 
	C459.663055,758.181335 471.333344,758.000000 483.000000,758.000000 
	C494.666656,758.000000 506.333344,758.000000 518.000000,758.000000 
	C529.666687,758.000000 541.370667,757.421265 552.988953,758.170959 
	C563.541138,758.851929 573.987976,757.507690 584.503418,757.911682 
	C594.987915,758.314453 605.500000,758.000000 616.000000,758.000000 
	C626.500000,758.000000 637.000000,758.000000 647.500000,758.000000 
	C658.000000,758.000000 668.500000,758.000000 679.000000,758.000000 
	C689.500000,758.000000 700.000000,758.000000 710.500000,758.000000 
	C721.000000,758.000000 731.500000,758.000000 742.000000,758.000000 
	C752.500000,758.000000 763.000000,758.000000 773.500000,758.000000 
	C784.000000,758.000000 794.500305,757.950684 804.999939,758.010132 
	C827.229797,758.136047 846.674561,741.033020 850.107971,720.017639 
	C850.712036,716.320435 851.168396,712.682190 850.963867,709.002014 
	C850.149231,694.344177 852.671997,679.608032 849.724365,664.954895 
	C849.316040,662.925354 851.031677,660.149475 851.030884,657.500000 
	C850.995056,540.000000 850.972656,422.500000 851.031128,305.000031 
	C851.039368,288.442627 837.625610,272.708008 821.019165,270.830475 
	C816.320496,270.299255 811.676208,270.030518 807.000000,270.026367 
	C758.500000,269.983490 709.999939,269.970612 661.500000,270.021332 
	C649.833069,270.033539 638.156006,269.586884 626.500000,270.500000 
"/>
<path fill="none" opacity="1.000000" stroke="#000000" stroke-linecap="round" stroke-linejoin="round" stroke-width="11.000000"
	d="
M339.500000,663.000000 
	C342.017303,665.009766 344.971985,665.020447 348.000000,665.020081 
	C515.000000,664.997437 682.000000,665.000000 849.000000,665.000000 
"/>
<path fill="none" opacity="1.000000" stroke="#000000" stroke-linecap="round" stroke-linejoin="round" stroke-width="11.000000"
	d="
M560.000000,525.750000 
	C561.833313,525.833374 563.666687,525.989075 565.500000,525.989502 
	C624.833313,526.002258 684.166687,526.020691 743.500000,525.979797 
	C753.500366,525.972900 763.512268,526.402039 773.500000,525.500000 
"/>
<path fill="none" opacity="1.000000" stroke="#000000" stroke-linecap="round" stroke-linejoin="round" stroke-width="11.000000"
	d="
M360.500000,850.750000 
	C368.500000,850.833313 376.780975,852.222412 384.409821,850.580933 
	C390.360229,849.300537 395.499969,851.016907 401.000000,851.014709 
	C461.000000,850.991211 521.000000,851.001465 581.000000,850.995117 
	C583.592285,850.994812 586.224182,851.307251 588.534119,849.544739 
	C589.141174,849.081604 590.309570,848.796997 590.978577,849.055481 
	C600.983215,852.921448 611.320740,850.385742 621.500000,850.750000 
"/>
<path fill="none" opacity="1.000000" stroke="#000000" stroke-linecap="round" stroke-linejoin="round" stroke-width="11.000000"
	d="
M317.500000,663.000000 
	C314.982697,665.009766 312.028046,665.021912 309.000000,665.020508 
	C250.333328,664.992859 191.666672,665.000000 133.000000,665.000000 
"/>
<path fill="none" opacity="1.000000" stroke="#000000" stroke-linecap="round" stroke-linejoin="round" stroke-width="10.000000"
	d="
M351.500000,550.000000 
	C352.590149,538.680237 351.904266,527.331665 351.903381,516.000000 
	C351.903076,511.833679 353.020935,509.476196 356.933044,507.375336 
	C375.944427,497.165985 388.255707,481.728699 391.445190,459.991943 
	C394.018250,442.456024 389.946167,426.421600 379.530914,411.977692 
	C374.642426,405.198334 368.242340,400.172913 361.473022,395.539398 
	C359.297485,394.050293 356.760742,393.188843 354.000000,393.500000 
"/>
<path fill="none" opacity="1.000000" stroke="#000000" stroke-linecap="round" stroke-linejoin="round" stroke-width="10.000000"
	d="
M566.500000,147.500000 
	C558.273926,160.154236 558.748718,178.141830 568.544128,190.966293 
	C571.756836,195.172424 574.382202,199.778946 577.578735,203.939514 
	C585.889343,214.756500 586.223206,234.454376 577.057739,245.547714 
	C573.862366,249.415237 571.514832,253.972015 568.460144,257.969574 
	C563.004089,265.109650 561.207886,273.298218 561.012817,282.000275 
	C560.776794,292.529144 560.781067,303.012451 566.421509,312.546448 
	C567.005798,313.534119 566.500000,315.166656 566.500000,316.500000 
"/>
<path fill="none" opacity="1.000000" stroke="#000000" stroke-linecap="round" stroke-linejoin="round" stroke-width="11.000000"
	d="
M305.500000,390.000000 
	C304.117767,392.183502 302.591827,394.370697 304.511017,396.991913 
	C305.565094,398.431519 304.955902,400.010498 304.963928,401.500183 
	C305.028290,413.499847 304.974915,425.500061 305.010468,437.499969 
	C305.028473,443.582153 306.417847,444.968658 312.500031,444.989685 
	C323.166565,445.026520 333.833435,445.026581 344.499969,444.989746 
	C350.582153,444.968719 351.971527,443.582153 351.989532,437.499969 
	C352.025024,425.500061 351.971710,413.499847 352.036072,401.500183 
	C352.044067,400.010498 351.434937,398.431549 352.489014,396.991943 
	C354.408203,394.370728 352.882233,392.183502 351.500000,390.000000 
"/>
<path fill="none" opacity="1.000000" stroke="#000000" stroke-linecap="round" stroke-linejoin="round" stroke-width="10.000000"
	d="
M519.750000,128.500000 
	C520.920166,131.653152 518.278931,133.354660 516.963074,135.477097 
	C512.668762,142.403564 506.611420,148.202820 504.445709,156.485809 
	C501.537292,167.609497 502.206696,178.178162 508.535919,187.976807 
	C512.171143,193.604736 516.203674,198.974670 519.992371,204.505219 
	C528.121399,216.371490 527.777588,232.490555 519.972778,244.482285 
	C516.973206,249.091034 513.874329,253.668823 510.411621,257.928162 
	C508.701996,260.031097 508.428528,262.106201 508.500000,264.500000 
"/>
<path fill="none" opacity="1.000000" stroke="#000000" stroke-linecap="round" stroke-linejoin="round" stroke-width="10.000000"
	d="
M303.000000,393.500000 
	C295.728760,393.469177 290.945984,398.433716 286.071625,402.584137 
	C265.191925,420.362549 258.714142,451.621796 270.492218,477.003601 
	C276.520782,489.995209 285.472168,500.206451 298.515381,506.467957 
	C303.267670,508.749359 305.412903,511.853119 305.151703,517.507019 
	C304.636902,528.649902 305.000000,539.833313 305.000000,551.000000 
"/>
<path fill="none" opacity="1.000000" stroke="#000000" stroke-linecap="round" stroke-linejoin="round" stroke-width="11.000000"
	d="
M658.500000,572.000000 
	C627.333313,572.000000 596.166687,571.995789 565.000000,572.011414 
	C563.325562,572.012268 561.603210,571.698730 560.000000,572.500000 
"/>
<path fill="none" opacity="1.000000" stroke="#000000" stroke-linecap="round" stroke-linejoin="round" stroke-width="10.000000"
	d="
M403.500000,171.500000 
	C395.496124,183.954391 396.340637,200.771149 405.408569,213.067413 
	C410.113373,219.447205 415.481201,225.614929 418.379913,233.046829 
	C422.971252,244.818146 422.505890,256.522247 415.500000,267.500000 
"/>
<path fill="none" opacity="1.000000" stroke="#000000" stroke-linecap="round" stroke-linejoin="round" stroke-width="10.000000"
	d="
M421.000000,760.000000 
	C420.833649,790.648682 412.678284,818.657227 393.467804,842.974548 
	C392.129639,844.668579 392.209137,846.682129 391.500000,848.500000 
"/>
<path fill="none" opacity="1.000000" stroke="#000000" stroke-linecap="round" stroke-linejoin="round" stroke-width="10.000000"
	d="
M561.000000,760.000000 
	C560.818665,787.759216 568.118469,813.320679 583.506836,836.495483 
	C586.074646,840.362610 589.810669,843.541016 590.500000,848.500000 
"/>
<path fill="none" opacity="1.000000" stroke="#000000" stroke-linecap="round" stroke-linejoin="round" stroke-width="10.000000"
	d="
M365.500000,616.000000 
	C357.155853,625.618225 352.138214,637.315552 345.472260,647.982666 
	C342.624359,652.539978 340.638397,657.376099 338.629700,662.350464 
	C336.923859,666.574951 332.000000,669.500000 328.500000,673.000000 
"/>
<path fill="none" opacity="1.000000" stroke="#000000" stroke-linecap="round" stroke-linejoin="round" stroke-width="11.000000"
	d="
M565.000000,398.000000 
	C561.118713,398.598724 560.975464,401.424530 560.980835,404.500031 
	C561.017334,425.499969 561.033264,446.500061 560.987244,467.499969 
	C560.960632,479.642975 560.357056,479.018555 572.500000,479.013123 
	C635.666687,478.984924 698.833313,479.000000 762.000000,479.000000 
	C769.752136,479.000000 770.000000,478.752136 770.000000,471.000000 
	C770.000000,449.166656 770.002197,427.333344 769.998779,405.500000 
	C769.997742,398.726746 769.273254,398.001404 762.500000,398.001190 
	C696.833313,397.999207 631.166687,398.000000 565.500000,398.000000 
"/>
</svg>